<svg width="255" height="55" viewBox="0 0 255 55" fill="none" xmlns="http://www.w3.org/2000/svg">
<rect width="254.907" height="54.5763" rx="15" fill="#FFB703"/>
<path d="M72.2642 33V18.4545H78.0028C79.1013 18.4545 80.0388 18.651 80.8153 19.044C81.5966 19.4323 82.1908 19.9839 82.598 20.6989C83.0099 21.4091 83.2159 22.2448 83.2159 23.206C83.2159 24.1719 83.0076 25.0028 82.5909 25.6989C82.1742 26.3902 81.5705 26.9205 80.7798 27.2898C79.9938 27.6591 79.0421 27.8438 77.9247 27.8438H74.0824V25.3722H77.4276C78.0147 25.3722 78.5024 25.2917 78.8906 25.1307C79.2789 24.9697 79.5677 24.7282 79.7571 24.4062C79.9512 24.0843 80.0483 23.6842 80.0483 23.206C80.0483 22.723 79.9512 22.3158 79.7571 21.9844C79.5677 21.6529 79.2765 21.402 78.8835 21.2315C78.4953 21.0563 78.0052 20.9688 77.4134 20.9688H75.3395V33H72.2642ZM80.1193 26.3807L83.7344 33H80.3395L76.8026 26.3807H80.1193ZM85.3892 33V18.4545H95.1903V20.9901H88.4645V24.456H94.6861V26.9915H88.4645V30.4645H95.2188V33H85.3892ZM109.801 18.4545V33H107.145L100.817 23.8452H100.711V33H97.6353V18.4545H100.334L106.613 27.6023H106.74V18.4545H109.801ZM111.788 20.9901V18.4545H123.734V20.9901H119.281V33H116.241V20.9901H111.788ZM142.497 18.4545V33H139.841L133.512 23.8452H133.406V33H130.331V18.4545H133.029L139.308 27.6023H139.436V18.4545H142.497ZM158.404 25.7273C158.404 27.3134 158.103 28.6629 157.502 29.7756C156.906 30.8883 156.091 31.7382 155.059 32.3253C154.031 32.9077 152.876 33.1989 151.593 33.1989C150.3 33.1989 149.14 32.9053 148.113 32.3182C147.085 31.7311 146.273 30.8812 145.677 29.7685C145.08 28.6558 144.782 27.3087 144.782 25.7273C144.782 24.1411 145.08 22.7917 145.677 21.679C146.273 20.5663 147.085 19.7187 148.113 19.1364C149.14 18.5492 150.3 18.2557 151.593 18.2557C152.876 18.2557 154.031 18.5492 155.059 19.1364C156.091 19.7187 156.906 20.5663 157.502 21.679C158.103 22.7917 158.404 24.1411 158.404 25.7273ZM155.286 25.7273C155.286 24.6998 155.132 23.8333 154.825 23.1278C154.522 22.4223 154.093 21.8873 153.539 21.5227C152.985 21.1581 152.336 20.9759 151.593 20.9759C150.85 20.9759 150.201 21.1581 149.647 21.5227C149.093 21.8873 148.662 22.4223 148.354 23.1278C148.051 23.8333 147.9 24.6998 147.9 25.7273C147.9 26.7547 148.051 27.6212 148.354 28.3267C148.662 29.0322 149.093 29.5672 149.647 29.9318C150.201 30.2964 150.85 30.4787 151.593 30.4787C152.336 30.4787 152.985 30.2964 153.539 29.9318C154.093 29.5672 154.522 29.0322 154.825 28.3267C155.132 27.6212 155.286 26.7547 155.286 25.7273ZM163.409 33L159.248 18.4545H162.607L165.015 28.5611H165.135L167.792 18.4545H170.668L173.317 28.5824H173.445L175.853 18.4545H179.212L175.05 33H172.053L169.283 23.4901H169.169L166.407 33H163.409ZM184.416 18.4545L184.139 28.6392H181.54L181.256 18.4545H184.416ZM182.839 33.1847C182.371 33.1847 181.968 33.0189 181.632 32.6875C181.296 32.3513 181.13 31.9489 181.135 31.4801C181.13 31.0161 181.296 30.6184 181.632 30.2869C181.968 29.9555 182.371 29.7898 182.839 29.7898C183.289 29.7898 183.685 29.9555 184.026 30.2869C184.366 30.6184 184.539 31.0161 184.544 31.4801C184.539 31.7926 184.456 32.0791 184.295 32.3395C184.139 32.5952 183.933 32.8011 183.678 32.9574C183.422 33.1089 183.143 33.1847 182.839 33.1847Z" fill="white"/>
</svg>
