<svg width="101" height="43" viewBox="0 0 101 43" fill="none" xmlns="http://www.w3.org/2000/svg">
<path d="M50.5 43L60.4593 28.75H40.5407L50.5 43Z" fill="white"/>
<path d="M2.35795 4.45455L6.67614 16.6989H6.84659L11.1648 4.45455H13.0114L7.67045 19H5.85227L0.511364 4.45455H2.35795ZM15.0497 19V8.09091H16.7259V19H15.0497ZM15.902 6.27273C15.5753 6.27273 15.2936 6.16146 15.0568 5.93892C14.8248 5.71638 14.7088 5.44886 14.7088 5.13636C14.7088 4.82386 14.8248 4.55634 15.0568 4.33381C15.2936 4.11127 15.5753 4 15.902 4C16.2287 4 16.508 4.11127 16.7401 4.33381C16.9768 4.55634 17.0952 4.82386 17.0952 5.13636C17.0952 5.44886 16.9768 5.71638 16.7401 5.93892C16.508 6.16146 16.2287 6.27273 15.902 6.27273ZM24.3697 19.2273C23.3185 19.2273 22.4118 18.9953 21.6495 18.5312C20.8919 18.0625 20.3072 17.4091 19.8952 16.571C19.488 15.7282 19.2844 14.7481 19.2844 13.6307C19.2844 12.5133 19.488 11.5284 19.8952 10.6761C20.3072 9.81913 20.8801 9.15152 21.614 8.6733C22.3526 8.19034 23.2144 7.94886 24.1992 7.94886C24.7674 7.94886 25.3285 8.04356 25.8825 8.23295C26.4364 8.42235 26.9407 8.73011 27.3952 9.15625C27.8498 9.57765 28.212 10.1364 28.4819 10.8324C28.7518 11.5284 28.8867 12.3854 28.8867 13.4034V14.1136H20.4776V12.6648H27.1822C27.1822 12.0492 27.0591 11.5 26.8129 11.017C26.5714 10.5341 26.2257 10.1529 25.7759 9.87358C25.3308 9.59422 24.8053 9.45455 24.1992 9.45455C23.5316 9.45455 22.954 9.62026 22.4663 9.9517C21.9833 10.2784 21.6116 10.7045 21.3512 11.2301C21.0908 11.7557 20.9606 12.3191 20.9606 12.9205V13.8864C20.9606 14.7102 21.1026 15.4086 21.3867 15.9815C21.6755 16.5497 22.0756 16.983 22.587 17.2812C23.0984 17.5748 23.6926 17.7216 24.3697 17.7216C24.81 17.7216 25.2077 17.66 25.5629 17.5369C25.9227 17.4091 26.2328 17.2197 26.4933 16.9688C26.7537 16.7131 26.9549 16.3958 27.0969 16.017L28.7163 16.4716C28.5458 17.0208 28.2594 17.5038 27.8569 17.9205C27.4544 18.3324 26.9573 18.6544 26.3654 18.8864C25.7736 19.1136 25.1083 19.2273 24.3697 19.2273ZM33.908 19L30.5842 8.09091H32.3455L34.7035 16.4432H34.8171L37.1467 8.09091H38.9364L41.2376 16.4148H41.3512L43.7092 8.09091H45.4705L42.1467 19H40.4989L38.1126 10.6193H37.9421L35.5558 19H33.908ZM53.5387 4.45455H55.641L60.5842 16.5284H60.7546L65.6978 4.45455H67.8001V19H66.1523V7.94886H66.0103L61.4648 19H59.8739L55.3285 7.94886H55.1864V19H53.5387V4.45455ZM75.5362 19.2273C74.5514 19.2273 73.6873 18.9929 72.9439 18.5241C72.2053 18.0554 71.6276 17.3996 71.2109 16.5568C70.799 15.714 70.593 14.7292 70.593 13.6023C70.593 12.4659 70.799 11.474 71.2109 10.6264C71.6276 9.77888 72.2053 9.12074 72.9439 8.65199C73.6873 8.18324 74.5514 7.94886 75.5362 7.94886C76.5211 7.94886 77.3828 8.18324 78.1214 8.65199C78.8648 9.12074 79.4425 9.77888 79.8544 10.6264C80.2711 11.474 80.4794 12.4659 80.4794 13.6023C80.4794 14.7292 80.2711 15.714 79.8544 16.5568C79.4425 17.3996 78.8648 18.0554 78.1214 18.5241C77.3828 18.9929 76.5211 19.2273 75.5362 19.2273ZM75.5362 17.7216C76.2843 17.7216 76.8999 17.5298 77.3828 17.1463C77.8658 16.7628 78.2232 16.2585 78.4553 15.6335C78.6873 15.0085 78.8033 14.3314 78.8033 13.6023C78.8033 12.8731 78.6873 12.1937 78.4553 11.5639C78.2232 10.9342 77.8658 10.4252 77.3828 10.0369C76.8999 9.64867 76.2843 9.45455 75.5362 9.45455C74.7881 9.45455 74.1726 9.64867 73.6896 10.0369C73.2067 10.4252 72.8492 10.9342 72.6172 11.5639C72.3852 12.1937 72.2692 12.8731 72.2692 13.6023C72.2692 14.3314 72.3852 15.0085 72.6172 15.6335C72.8492 16.2585 73.2067 16.7628 73.6896 17.1463C74.1726 17.5298 74.7881 17.7216 75.5362 17.7216ZM83.038 19V8.09091H84.6573V9.73864H84.771C84.9698 9.19886 85.3297 8.76089 85.8505 8.42472C86.3713 8.08854 86.9585 7.92045 87.6119 7.92045C87.735 7.92045 87.8888 7.92282 88.0735 7.92756C88.2582 7.93229 88.3978 7.93939 88.4925 7.94886V9.65341C88.4357 9.6392 88.3055 9.6179 88.1019 9.58949C87.9031 9.55634 87.6924 9.53977 87.4698 9.53977C86.9395 9.53977 86.466 9.65104 86.0494 9.87358C85.6374 10.0914 85.3107 10.3944 85.0692 10.7827C84.8325 11.1662 84.7141 11.6042 84.7141 12.0966V19H83.038ZM94.7212 19.2273C93.6701 19.2273 92.7634 18.9953 92.0011 18.5312C91.2435 18.0625 90.6587 17.4091 90.2468 16.571C89.8396 15.7282 89.636 14.7481 89.636 13.6307C89.636 12.5133 89.8396 11.5284 90.2468 10.6761C90.6587 9.81913 91.2317 9.15152 91.9656 8.6733C92.7042 8.19034 93.5659 7.94886 94.5508 7.94886C95.119 7.94886 95.68 8.04356 96.234 8.23295C96.788 8.42235 97.2923 8.73011 97.7468 9.15625C98.2013 9.57765 98.5636 10.1364 98.8335 10.8324C99.1033 11.5284 99.2383 12.3854 99.2383 13.4034V14.1136H90.8292V12.6648H97.5337C97.5337 12.0492 97.4106 11.5 97.1644 11.017C96.9229 10.5341 96.5773 10.1529 96.1275 9.87358C95.6824 9.59422 95.1568 9.45455 94.5508 9.45455C93.8832 9.45455 93.3055 9.62026 92.8178 9.9517C92.3349 10.2784 91.9632 10.7045 91.7028 11.2301C91.4424 11.7557 91.3121 12.3191 91.3121 12.9205V13.8864C91.3121 14.7102 91.4542 15.4086 91.7383 15.9815C92.0271 16.5497 92.4272 16.983 92.9386 17.2812C93.4499 17.5748 94.0442 17.7216 94.7212 17.7216C95.1616 17.7216 95.5593 17.66 95.9144 17.5369C96.2743 17.4091 96.5844 17.2197 96.8448 16.9688C97.1052 16.7131 97.3065 16.3958 97.4485 16.017L99.0678 16.4716C98.8974 17.0208 98.6109 17.5038 98.2085 17.9205C97.806 18.3324 97.3088 18.6544 96.717 18.8864C96.1251 19.1136 95.4599 19.2273 94.7212 19.2273Z" fill="white"/>
</svg>
