<svg xmlns="http://www.w3.org/2000/svg" xmlns:xlink="http://www.w3.org/1999/xlink" version="1.1" width="256" height="256" viewBox="0 0 256 256" xml:space="preserve">

<defs>
</defs>
<g style="stroke: none; stroke-width: 0; stroke-dasharray: none; stroke-linecap: butt; stroke-linejoin: miter; stroke-miterlimit: 10; fill: none; fill-rule: nonzero; opacity: 1;" transform="translate(1.4065934065934016 1.4065934065934016) scale(2.81 2.81)" >
	<path d="M 72.002 10.915 H 17.998 c -3.134 0 -5.675 2.541 -5.675 5.675 v 7.049 h 65.354 V 16.59 C 77.677 13.456 75.136 10.915 72.002 10.915 z" style="stroke: none; stroke-width: 1; stroke-dasharray: none; stroke-linecap: butt; stroke-linejoin: miter; stroke-miterlimit: 10; fill: rgb(178,20,20); fill-rule: nonzero; opacity: 1;" transform=" matrix(1 0 0 1 0 0) " stroke-linecap="round" />
	<path d="M 57.546 15.544 H 32.454 c -1.42 0 -2.571 -1.151 -2.571 -2.571 V 6.19 c 0 -3.413 2.777 -6.19 6.19 -6.19 h 17.854 c 3.413 0 6.191 2.777 6.191 6.19 v 6.782 C 60.117 14.392 58.966 15.544 57.546 15.544 z M 35.026 10.401 h 19.949 V 6.19 c 0 -0.578 -0.47 -1.047 -1.048 -1.047 H 36.073 c -0.578 0 -1.047 0.47 -1.047 1.047 V 10.401 z" style="stroke: none; stroke-width: 1; stroke-dasharray: none; stroke-linecap: butt; stroke-linejoin: miter; stroke-miterlimit: 10; fill: rgb(178,20,20); fill-rule: nonzero; opacity: 1;" transform=" matrix(1 0 0 1 0 0) " stroke-linecap="round" />
	<path d="M 74.016 28.782 H 15.984 v 55.543 c 0 3.134 2.541 5.675 5.675 5.675 h 46.682 c 3.134 0 5.675 -2.541 5.675 -5.675 V 28.782 z" style="stroke: none; stroke-width: 1; stroke-dasharray: none; stroke-linecap: butt; stroke-linejoin: miter; stroke-miterlimit: 10; fill: rgb(178,20,20); fill-rule: nonzero; opacity: 1;" transform=" matrix(1 0 0 1 0 0) " stroke-linecap="round" />
	<path d="M 31.915 79.328 c 0 1.42 -1.151 2.571 -2.571 2.571 c -1.42 0 -2.571 -1.151 -2.571 -2.571 V 41.509 c 0 -1.42 1.151 -2.571 2.571 -2.571 c 1.42 0 2.571 1.151 2.571 2.571 V 79.328 z" style="stroke: none; stroke-width: 1; stroke-dasharray: none; stroke-linecap: butt; stroke-linejoin: miter; stroke-miterlimit: 10; fill: rgb(255,255,255); fill-rule: nonzero; opacity: 1;" transform=" matrix(1 0 0 1 0 0) " stroke-linecap="round" />
	<path d="M 47.571 79.328 c 0 1.42 -1.151 2.571 -2.571 2.571 s -2.571 -1.151 -2.571 -2.571 V 41.509 c 0 -1.42 1.151 -2.571 2.571 -2.571 s 2.571 1.151 2.571 2.571 V 79.328 z" style="stroke: none; stroke-width: 1; stroke-dasharray: none; stroke-linecap: butt; stroke-linejoin: miter; stroke-miterlimit: 10; fill: rgb(255,255,255); fill-rule: nonzero; opacity: 1;" transform=" matrix(1 0 0 1 0 0) " stroke-linecap="round" />
	<path d="M 63.228 79.328 c 0 1.42 -1.151 2.571 -2.571 2.571 c -1.42 0 -2.571 -1.151 -2.571 -2.571 V 41.509 c 0 -1.42 1.151 -2.571 2.571 -2.571 c 1.42 0 2.571 1.151 2.571 2.571 V 79.328 z" style="stroke: none; stroke-width: 1; stroke-dasharray: none; stroke-linecap: butt; stroke-linejoin: miter; stroke-miterlimit: 10; fill: rgb(255,255,255); fill-rule: nonzero; opacity: 1;" transform=" matrix(1 0 0 1 0 0) " stroke-linecap="round" />
</g>
</svg>